<?xml version="1.0" encoding="UTF-8"?>
<svg id="Calque_2" data-name="Calque 2" xmlns="http://www.w3.org/2000/svg" viewBox="0 0 199.41 75.78">
  <defs>
    <style>
      .cls-1 {
        fill: #239451;
      }

      .cls-2 {
        fill: #219252;
      }

      .cls-3 {
        fill: #e84263;
      }

      .cls-4 {
        fill: #0e0f0f;
      }
    </style>
  </defs>
  <g id="Calque_1-2" data-name="Calque 1">
    <g>
      <g>
        <polygon class="cls-3" points="190.95 46.11 183.89 60.06 181.47 66.06 180.67 69.17 183.78 72.28 187.65 71.83 189.78 68 195.06 55.11 197.89 47.89 197.89 45.77 194.56 44.83 192.45 45.06 190.95 46.11"/>
        <g>
          <path class="cls-4" d="m121.9,63.08c-1.98-1.83-2.24-3.99-1.43-6.12,1.2-3.2,4.48-4.76,7.87-3.54,3.04,1.09,6.1,2.11,9.15,3.18,1.81.63,3.6,1.29,5.4,1.94.23.08.47.12.69.2.35.13.77.49,1.05.3.26-.18.27-.69.41-1.05.36-.95.96-1.72,1.85-2.22,1.71-.95,3.52-1.69,5.29-2.49,1.46-.66,2.89-1.41,4.37-2.04,1.33-.57,2.65-1.16,3.95-1.78,1.35-.64,2.7-1.25,4.06-1.87,1.83-.84,3.68-1.63,5.48-2.52,1.62-.81,3.27-1.44,5.07-1.69,2.27-.31,4.42.15,6.55.86,2.25.75,4.5,1.46,6.75,2.2.25.08.34.04.5-.21,1.29-2.09,3.35-3.09,5.89-2.33.99.3,2.06.45,2.93,1.02,1.57,1.03,2.15,2.79,1.22,4.54-.58,1.09-1.04,2.24-1.59,3.35-.48.98-.91,1.98-1.36,2.97-1.04,2.26-2.08,4.52-3.13,6.78-.79,1.69-1.6,3.38-2.39,5.07-.63,1.35-1.2,2.72-1.87,4.05-.69,1.39-2.31,2.33-3.93,1.83-1.24-.38-2.53-.72-3.6-1.49-.93-.66-1.76-1.46-1.94-2.68-.07-.46-.26-.62-.76-.69-2.23-.31-4.39-.11-6.48.7-1.16.46-2.29,1.01-3.43,1.53-1.33.61-2.65,1.25-3.99,1.84-1.43.63-2.82,1.33-4.29,1.88-2.62.98-5.31,1.32-8.08,1.13-2.92-.2-5.57-1.23-8.2-2.46-2-.94-4.05-1.77-6.06-2.68-2.14-.96-4.29-1.88-6.42-2.87-2.37-1.1-4.79-2.07-7.17-3.14-.91-.41-1.88-.75-2.36-1.49Zm71.24-7.06h0c.14-.13.25-.28.17-.49.01-.02.03-.04.04-.07.14-.07.23-.16.2-.33.45-.95.9-1.9,1.35-2.85.02-.05.04-.1.05-.15.13-.16.15-.36.21-.54.13-.07.21-.17.2-.33.03-.06.06-.11.1-.17.07-.03.08-.08.05-.15.02-.08.03-.15.05-.23.11-.05.17-.12.11-.25.01-.02.03-.04.04-.07.39-.49.58-1.07.75-1.66.11-.11.18-.23.2-.39.35-.27.33-.6.15-.95-.08-.16-.2-.28-.36-.36-.04-.06-.09-.08-.15-.04h0c-.27-.19-.57-.27-.89-.28-.07-.02-.13-.05-.2-.07-.37-.15-.72-.36-1.14-.29-.14-.18-.34-.17-.53-.19-.56-.15-1.06.04-1.53.33-.5.27-.77.73-.98,1.23-.09.09-.28.12-.19.32-.01.03-.02.06-.03.09-.06.03-.09.07-.05.14h0c-.12.08-.18.19-.16.33-.04.05-.08.1-.12.15-.08.04-.09.09-.04.16h0c-.39.47-.51,1.07-.77,1.61-.49,1.01-.98,2.01-1.46,3.02-.72,1.51-1.44,3.01-2.16,4.52-1.05,2.21-2.11,4.42-3.16,6.64-.42.87-.86,1.74-1.23,2.63-.51,1.24.05,2.46,1.3,2.91.64.23,1.28.47,1.93.7.81.29,1.23.12,1.63-.64.05-.1.09-.2.14-.31.51-1.11,1-2.23,1.52-3.34.75-1.62,1.53-3.24,2.28-4.87.86-1.84,1.71-3.69,2.57-5.53.1-.05.14-.13.11-.24Zm-69.51.49c-.59.55-.89,1.25-1,2.01-.2,1.43.39,2.83,1.85,3.44,1.7.72,3.38,1.49,5.07,2.24,5.82,2.58,11.63,5.18,17.47,7.72,5.11,2.22,10.1,1.65,14.99-.76,1.16-.57,2.33-1.12,3.5-1.66,1.2-.56,2.42-1.08,3.61-1.66,1.08-.52,2.18-1.02,3.32-1.32,2.05-.54,4.15-.69,6.26-.32.49.09.75-.04.95-.5.46-1.08.94-2.15,1.48-3.2,1.31-2.54,2.48-5.15,3.71-7.72.5-1.05,1.02-2.1,1.5-3.17.38-.83.78-1.66,1.22-2.47.16-.29.08-.36-.21-.45-2.43-.77-4.85-1.54-7.27-2.34-2.71-.91-5.33-.76-7.91.47-1.53.73-3.08,1.42-4.62,2.12-2.07.94-4.17,1.83-6.22,2.82-1.99.97-4.02,1.86-6.03,2.8-2.34,1.09-4.72,2.11-7.04,3.25-.62.31-.88.85-1.05,1.46-.24.83.11,1.48.62,2.13.59.76,1.2,1.06,2.14.79,1.15-.33,2.19-.93,3.26-1.42,1.92-.89,3.83-1.78,5.75-2.68,1.66-.78,3.35-1.52,5.01-2.32.62-.3,1.42-.01,1.75.58.28.51.07,1.3-.47,1.56-1.35.66-2.72,1.27-4.08,1.91-1.2.56-2.4,1.12-3.61,1.67-.85.38-1.66.86-2.51,1.21-1.22.49-2.42,1.03-3.6,1.61-1.49.74-4.3.75-5.66-1.48-.31-.51-.73-.89-1.37-1.1-3.67-1.25-7.32-2.56-10.98-3.85-2.03-.71-4.06-1.43-6.09-2.14-1.42-.5-2.66-.2-3.77.79Z"/>
          <g>
            <path class="cls-2" d="m144.79,0c.44.1.89.18,1.33.3,1.43.4,2.03,1.37,1.77,2.84-.25,1.4-.83,2.71-1.23,4.07-1.07,3.64-1.82,7.34-2.19,11.12-.54,5.56.27,10.95,1.86,16.25.68,2.27,1.48,4.49,2.37,6.68.69,1.68.8,3.34-.29,4.93-.24.35-.1.58.27.67.55.13,1.02.45,1.53.66.53.22.63.53.39,1.05-.28.6-.82.85-1.46.68-.31-.09-.62-.17-.94-.19-1.12-.08-1.7.3-2.06,1.38-.11.34-.17.69-.27,1.03-.21.65-1.01,1.15-1.71.43-.83-.85-1.87-.91-2.93-.31-.77.43-1.44,1.01-2.27,1.32-.22.08-.44.23-.65-.01-.19-.22-.26-.49-.14-.76.14-.33.32-.63.47-.95.53-1.13.29-1.94-.83-2.48-1.09-.52-1.8-1.35-2.08-2.48-.96-3.88-2.52-7.56-3.79-11.34-.25-.75-.53-1.51-.68-2.28-.28-1.42-1.17-2.38-2.2-3.3-3.55-3.14-7.57-5.61-11.59-8.08-1.33-.81-2.62-1.68-3.87-2.6-.2-.15-.39-.32-.57-.5-.85-.85-.82-1.67.16-2.39,1.43-1.06,2.97-1.95,4.51-2.83,1.31-.75,2.69-1.32,4.12-1.83,2.47-.88,4.55-.15,6.4,1.5,1.25,1.12,1.86,2.51,1.78,4.23-.11,2.16-.12,4.32-.18,6.48,0,.03.03.06.06.14,1.02-.55,1.57-1.41,1.7-2.53.22-1.83.4-3.66.62-5.48.37-3.08.94-6.12,2.37-8.91,1.89-3.7,5.04-5.65,9.01-6.44.1-.02.19-.05.29-.08.3,0,.61,0,.91,0Zm-2.55,47.55c.98,0,1.82-.38,2.57-.95,1.25-.95,1.87-2.24,1.6-3.81-.41-2.32-1.18-4.54-1.93-6.76-.67-1.98-1.54-3.89-1.99-5.95-.21-.98-.69-1.87-1.41-2.6-.25-.25-.37-.24-.45.12-.13.56-.24,1.12-.47,1.65-.35.79-.9,1.13-1.76,1.09-.69-.03-1.1-.47-1.41-1.02-.28-.5-.5-1.04-.81-1.52-.43-.67-1.04-.72-1.61-.16-.1.09-.19.19-.27.3-1.11,1.43-1.34,3-.72,4.68.5,1.35,1.07,2.67,1.52,4.03.86,2.56,1.69,5.13,2.6,7.68.64,1.78,2.74,3.21,4.55,3.22Z"/>
            <path class="cls-3" d="m169.74,10.75c-.06.21-.12.42-.17.63-.45,1.75-1.68,2.86-3.47,3.11-1.16.17-2.29,0-3.41-.27-.29-.07-.38-.2-.18-.46,1.44-1.86,3.07-3.43,5.53-3.79.59-.09,1.14.02,1.7.16v.61Z"/>
            <path class="cls-2" d="m159.66,14.47c1.95.26,3.97.88,5.27,2.84.81,1.22.96,2.61.92,4.03-.08,2.46-.74,4.84-1,7.27-.14,1.27-.03,2.53.09,3.79.18,1.91.46,3.81.27,5.75-.43,4.52-4.19,8.41-8.68,8.94-1.27.15-2.49-.01-3.7-.39-.69-.22-1.37-.49-2.05-.73-.3-.1-.42-.22-.26-.55.55-1.17.49-2.38.09-3.56-.61-1.76-1.36-3.46-1.93-5.23-.88-2.68-1.63-5.4-2.11-8.19-.07-.42.02-.7.31-.99.69-.69,1.36-1.41,2.05-2.11,1.37-1.38,2.31-3.03,3.13-4.76.63-1.35,1.32-2.67,2.37-3.76,1.37-1.42,2.98-2.3,5.24-2.37Zm-.87,17.52c.04-.61-.05-1.39-.11-2.16-.1-1.18-.26-2.35-.52-3.51-.14-.66-.62-.83-1.17-.43-.25.18-.48.38-.71.58-1.97,1.72-3.78,3.58-5.1,5.86-.47.81-.82,1.67-.96,2.6-.19,1.27.55,1.99,1.8,1.78.41-.07.78-.22,1.13-.42.7-.39,1.1-.26,1.39.47.2.49.44.96.84,1.31.69.61,1.39.57,2-.12.31-.34.52-.75.69-1.18.57-1.49.73-3.05.72-4.79Z"/>
            <path class="cls-2" d="m129.54.85c1.89-.03,3.93,2.15,3.62,3.89-.06.36-.19.7-.41.97-1.03,1.26-1.38,2.76-1.63,4.31-.06.37-.12.74-.28,1.07-.24.5-.64.64-1.13.38-.21-.11-.41-.25-.57-.41-1.86-1.93-4.2-2.29-6.72-2.07-.61.05-1.2.16-1.8.29-.56.13-.94-.05-1.24-.55-.94-1.51-.62-3.33.74-4.47.63-.53,1.31-.91,2.1-1.17,1.83-.59,3.59-1.41,5.45-1.91.61-.16,1.21-.29,1.87-.34Z"/>
            <path class="cls-3" d="m161.44,12.99c0,.18,0,.34-.02.51-.02.16-.11.22-.28.19-1.11-.21-2.31-1.72-2.25-2.87.03-.55.13-1.24.63-1.39.51-.16.88.46,1.17.88.55.8.7,1.74.75,2.68Z"/>
            <path class="cls-2" d="m151.98,34.18c0-.22.04-.44.15-.63.42-.73,1.01-1.3,1.74-1.72.41-.23.74-.03.65.38-.2.85-.44,1.7-1.1,2.34-.17.17-.37.29-.61.33-.49.07-.82-.2-.82-.7Z"/>
            <path class="cls-2" d="m155.53,34.93c0-.73.28-1.38.56-2.02.07-.15.19-.3.38-.29.19,0,.31.16.36.32.25.79.47,1.58.24,2.42-.16.57-.44.81-.85.76-.39-.05-.66-.41-.69-.93,0-.08,0-.17,0-.25Z"/>
          </g>
        </g>
      </g>
      <g>
        <path class="cls-1" d="m63.56,59.32c-4.28-3.69-6.81-9.33-6.7-14.98.01-.6.05-1.21.09-1.82.03-.18.13-.55-.01-.71-.15-.17-.47-.06-.65,0-2.1.73-4.21,1.46-6.31,2.18-.13.05-.27.1-.35.21-.11.16-.08.37-.06.56.02.08.02.16.03.24.08.9-.03,1.81-.32,2.67-.23.71-.59,1.38-1.05,1.97,1.46.18,2.67,1.33,2.8,2.91.14,1.56-.88,3.21-2.3,3.71-.21.08-.43.15-.64.23.22.57.44,1.14.66,1.72.05.15.11.31.24.4.05.05.11.08.18.09.16.05.35.03.52.01,2.47-.22,5.02.97,6.42,3.01.13.19.28.41.51.44.14.03.27-.02.4-.06,2.18-.75,4.36-1.51,6.54-2.26.06-.02.11-.04.15-.09.11-.12-.03-.31-.15-.43Zm23.95-22.58c-1.11-1.29-2.36-2.4-3.92-3.16-1.79-.87-3.68-1.34-5.71-1.29-4.76.09-8.33,2.24-10.88,6.01-.91,1.33-1.49,2.85-1.81,4.48-.98,5.03,1.28,10.81,6.71,13.41,1,.53,2.25.92,3.57,1.1,5.71.8,10.66-2.12,13.22-6.56.41-.72.66-1.48.94-2.24.52-1.44.74-2.9.69-4.41-.1-2.73-.96-5.2-2.81-7.34Zm-3.59,12.28c-.07.45-.2.92-.42,1.24-.43.78-.93,1.39-1.59,1.83-.32.22-.4.42-.26.73.21.46.13.87-.1,1.29-.24.44-.58.61-1.04.58-.46-.01-.87-.17-1.06-.63-.05-.1-.1-.19-.12-.3-.09-.42-.31-.56-.75-.54-.88.04-1.74-.11-2.51-.53-1.11-.61-1.89-1.53-2.25-2.73-.21-.72.05-1.2.76-1.44.58-.21,1.28.08,1.59.64l.04.11c.52,1.61,2.91,1.92,3.99,1.05.68-.53,1.22-1.17,1.32-2.05.17-1.62-1.49-2.81-3.27-2.34-.51.14-1,.27-1.53.33-2,.22-3.6-.54-4.7-2.08-.75-1.05-.89-2.29-.64-3.61.25-1.35,1.08-2.23,2.09-3.04.28-.22.31-.41.2-.68-.15-.33-.22-.66-.12-1.01.15-.48.69-.89,1.18-.93.3-.02,1.15.59,1.22.95.11.5.35.62.87.6,2.02-.07,3.97,1.29,4.6,3.01.2.53.15,1-.23,1.41-.36.39-.84.45-1.35.33-.4-.12-.63-.43-.72-.78-.32-1.11-2.01-1.77-3.07-1.48-1.31.32-2.33,1.52-2.26,2.73.09,1.59,1.48,2.53,3.35,2.05.69-.2,1.4-.41,2.13-.34,2.91.23,5.29,2.35,4.65,5.63Zm3.59-12.28c-1.11-1.29-2.36-2.4-3.92-3.16-1.79-.87-3.68-1.34-5.71-1.29-4.76.09-8.33,2.24-10.88,6.01-.91,1.33-1.49,2.85-1.81,4.48-.98,5.03,1.28,10.81,6.71,13.41,1,.53,2.25.92,3.57,1.1,5.71.8,10.66-2.12,13.22-6.56.41-.72.66-1.48.94-2.24.52-1.44.74-2.9.69-4.41-.1-2.73-.96-5.2-2.81-7.34Zm-3.59,12.28c-.07.45-.2.92-.42,1.24-.43.78-.93,1.39-1.59,1.83-.32.22-.4.42-.26.73.21.46.13.87-.1,1.29-.24.44-.58.61-1.04.58-.46-.01-.87-.17-1.06-.63-.05-.1-.1-.19-.12-.3-.09-.42-.31-.56-.75-.54-.88.04-1.74-.11-2.51-.53-1.11-.61-1.89-1.53-2.25-2.73-.21-.72.05-1.2.76-1.44.58-.21,1.28.08,1.59.64l.04.11c.52,1.61,2.91,1.92,3.99,1.05.68-.53,1.22-1.17,1.32-2.05.17-1.62-1.49-2.81-3.27-2.34-.51.14-1,.27-1.53.33-2,.22-3.6-.54-4.7-2.08-.75-1.05-.89-2.29-.64-3.61.25-1.35,1.08-2.23,2.09-3.04.28-.22.31-.41.2-.68-.15-.33-.22-.66-.12-1.01.15-.48.69-.89,1.18-.93.3-.02,1.15.59,1.22.95.11.5.35.62.87.6,2.02-.07,3.97,1.29,4.6,3.01.2.53.15,1-.23,1.41-.36.39-.84.45-1.35.33-.4-.12-.63-.43-.72-.78-.32-1.11-2.01-1.77-3.07-1.48-1.31.32-2.33,1.52-2.26,2.73.09,1.59,1.48,2.53,3.35,2.05.69-.2,1.4-.41,2.13-.34,2.91.23,5.29,2.35,4.65,5.63Zm-20.36,10.3c-4.28-3.69-6.81-9.33-6.7-14.98.01-.6.05-1.21.09-1.82.03-.18.13-.55-.01-.71-.15-.17-.47-.06-.65,0-2.1.73-4.21,1.46-6.31,2.18-.13.05-.27.1-.35.21-.11.16-.08.37-.06.56.02.08.02.16.03.24.08.9-.03,1.81-.32,2.67-.23.71-.59,1.38-1.05,1.97,1.46.18,2.67,1.33,2.8,2.91.14,1.56-.88,3.21-2.3,3.71-.21.08-.43.15-.64.23.22.57.44,1.14.66,1.72.05.15.11.31.24.4.05.05.11.08.18.09.16.05.35.03.52.01,2.47-.22,5.02.97,6.42,3.01.13.19.28.41.51.44.14.03.27-.02.4-.06,2.18-.75,4.36-1.51,6.54-2.26.06-.02.11-.04.15-.09.11-.12-.03-.31-.15-.43Zm0,0c-4.28-3.69-6.81-9.33-6.7-14.98.01-.6.05-1.21.09-1.82.03-.18.13-.55-.01-.71-.15-.17-.47-.06-.65,0-2.1.73-4.21,1.46-6.31,2.18-.13.05-.27.1-.35.21-.11.16-.08.37-.06.56.02.08.02.16.03.24.08.9-.03,1.81-.32,2.67-.23.71-.59,1.38-1.05,1.97,1.46.18,2.67,1.33,2.8,2.91.14,1.56-.88,3.21-2.3,3.71-.21.08-.43.15-.64.23.22.57.44,1.14.66,1.72.05.15.11.31.24.4.05.05.11.08.18.09.16.05.35.03.52.01,2.47-.22,5.02.97,6.42,3.01.13.19.28.41.51.44.14.03.27-.02.4-.06,2.18-.75,4.36-1.51,6.54-2.26.06-.02.11-.04.15-.09.11-.12-.03-.31-.15-.43Zm23.95-22.58c-1.11-1.29-2.36-2.4-3.92-3.16-1.79-.87-3.68-1.34-5.71-1.29-4.76.09-8.33,2.24-10.88,6.01-.91,1.33-1.49,2.85-1.81,4.48-.98,5.03,1.28,10.81,6.71,13.41,1,.53,2.25.92,3.57,1.1,5.71.8,10.66-2.12,13.22-6.56.41-.72.66-1.48.94-2.24.52-1.44.74-2.9.69-4.41-.1-2.73-.96-5.2-2.81-7.34Zm-3.59,12.28c-.07.45-.2.92-.42,1.24-.43.78-.93,1.39-1.59,1.83-.32.22-.4.42-.26.73.21.46.13.87-.1,1.29-.24.44-.58.61-1.04.58-.46-.01-.87-.17-1.06-.63-.05-.1-.1-.19-.12-.3-.09-.42-.31-.56-.75-.54-.88.04-1.74-.11-2.51-.53-1.11-.61-1.89-1.53-2.25-2.73-.21-.72.05-1.2.76-1.44.58-.21,1.28.08,1.59.64l.04.11c.52,1.61,2.91,1.92,3.99,1.05.68-.53,1.22-1.17,1.32-2.05.17-1.62-1.49-2.81-3.27-2.34-.51.14-1,.27-1.53.33-2,.22-3.6-.54-4.7-2.08-.75-1.05-.89-2.29-.64-3.61.25-1.35,1.08-2.23,2.09-3.04.28-.22.31-.41.2-.68-.15-.33-.22-.66-.12-1.01.15-.48.69-.89,1.18-.93.3-.02,1.15.59,1.22.95.11.5.35.62.87.6,2.02-.07,3.97,1.29,4.6,3.01.2.53.15,1-.23,1.41-.36.39-.84.45-1.35.33-.4-.12-.63-.43-.72-.78-.32-1.11-2.01-1.77-3.07-1.48-1.31.32-2.33,1.52-2.26,2.73.09,1.59,1.48,2.53,3.35,2.05.69-.2,1.4-.41,2.13-.34,2.91.23,5.29,2.35,4.65,5.63Zm24.31-11.3c-.65-2.09-1.29-4.18-1.94-6.27-.04-.14-.09-.29-.19-.4-.21-.23-.59-.22-.91-.2-2.27.1-4.54-1.09-5.77-3.01-.05-.07-.09-.14-.13-.21-.1-.17-.2-.35-.39-.4-.13-.04-.27,0-.4.05-2.1.73-4.21,1.44-6.31,2.17-.18.06-.5.17-.52.4-.01.21.3.43.43.57.41.45.82.9,1.19,1.37,3.56,4.38,5.05,10.39,3.95,15.92-.02.17-.02.41.15.44.06.01.11,0,.16-.02,2.19-.76,4.37-1.5,6.56-2.25.12-.04.25-.09.34-.2.17-.17.15-.43.14-.65-.16-2.48,1.11-4.99,3.2-6.33.21-.13.44-.27.49-.51.04-.15,0-.32-.05-.47Zm0,0c-.65-2.09-1.29-4.18-1.94-6.27-.04-.14-.09-.29-.19-.4-.21-.23-.59-.22-.91-.2-2.27.1-4.54-1.09-5.77-3.01-.05-.07-.09-.14-.13-.21-.1-.17-.2-.35-.39-.4-.13-.04-.27,0-.4.05-2.1.73-4.21,1.44-6.31,2.17-.18.06-.5.17-.52.4-.01.21.3.43.43.57.41.45.82.9,1.19,1.37,3.56,4.38,5.05,10.39,3.95,15.92-.02.17-.02.41.15.44.06.01.11,0,.16-.02,2.19-.76,4.37-1.5,6.56-2.25.12-.04.25-.09.34-.2.17-.17.15-.43.14-.65-.16-2.48,1.11-4.99,3.2-6.33.21-.13.44-.27.49-.51.04-.15,0-.32-.05-.47Zm-20.72-.98c-1.11-1.29-2.36-2.4-3.92-3.16-1.79-.87-3.68-1.34-5.71-1.29-4.76.09-8.33,2.24-10.88,6.01-.91,1.33-1.49,2.85-1.81,4.48-.98,5.03,1.28,10.81,6.71,13.41,1,.53,2.25.92,3.57,1.1,5.71.8,10.66-2.12,13.22-6.56.41-.72.66-1.48.94-2.24.52-1.44.74-2.9.69-4.41-.1-2.73-.96-5.2-2.81-7.34Zm-3.59,12.28c-.07.45-.2.92-.42,1.24-.43.78-.93,1.39-1.59,1.83-.32.22-.4.42-.26.73.21.46.13.87-.1,1.29-.24.44-.58.61-1.04.58-.46-.01-.87-.17-1.06-.63-.05-.1-.1-.19-.12-.3-.09-.42-.31-.56-.75-.54-.88.04-1.74-.11-2.51-.53-1.11-.61-1.89-1.53-2.25-2.73-.21-.72.05-1.2.76-1.44.58-.21,1.28.08,1.59.64l.04.11c.52,1.61,2.91,1.92,3.99,1.05.68-.53,1.22-1.17,1.32-2.05.17-1.62-1.49-2.81-3.27-2.34-.51.14-1,.27-1.53.33-2,.22-3.6-.54-4.7-2.08-.75-1.05-.89-2.29-.64-3.61.25-1.35,1.08-2.23,2.09-3.04.28-.22.31-.41.2-.68-.15-.33-.22-.66-.12-1.01.15-.48.69-.89,1.18-.93.3-.02,1.15.59,1.22.95.11.5.35.62.87.6,2.02-.07,3.97,1.29,4.6,3.01.2.53.15,1-.23,1.41-.36.39-.84.45-1.35.33-.4-.12-.63-.43-.72-.78-.32-1.11-2.01-1.77-3.07-1.48-1.31.32-2.33,1.52-2.26,2.73.09,1.59,1.48,2.53,3.35,2.05.69-.2,1.4-.41,2.13-.34,2.91.23,5.29,2.35,4.65,5.63Zm33.3-3.88l-8.96-26.03s-.03-.09-.06-.12c-.35-.92-1.13-1.56-2.03-1.77-.49-.12-1.01-.11-1.52.03-.05.01-.08.02-.13.04l-44.17,15.21-19.9,6.86c-.3.52-.6,1.04-.94,1.54-.7,1.07-1.34,2.18-2.05,3.26l1,2.9.99,2.86.75,2.18c.92-.33,1.84-.65,2.76-.98.14-.05.28-.1.42-.15-.14-.71.17-1.16.96-1.49.93-.39,1.65-.98,2.13-1.7.71-1.07.89-2.43.44-3.86-.12-.38-.15-.73.08-1.07.11-.42.43-.62.82-.75,2.22-.76,4.44-1.55,6.66-2.28,1.31-.43,2.58-.95,3.89-1.36,1.09-.35,1.93.72,1.59,1.72-.23.68-.36,1.39-.45,2.1-.62,4.68.57,8.88,3.35,12.67,1.2,1.62,2.74,2.85,4.32,4.05.41.31.75.68.68,1.18-.08.56-.43.98-1.04,1.19-3.4,1.15-6.78,2.33-10.18,3.5-1.16.4-1.58.22-2.07-.87-.96-2.13-3.31-3.3-5.65-2.61-1.03.3-1.62,0-2-1.01-.09-.24-.18-.49-.28-.73-.29-.78-.58-1.55-.88-2.32-1.12.39-2.23.79-3.34,1.19l.82,2.37,3,8.7s.03.09.05.12c.32.84.99,1.44,1.78,1.71.6.2,1.26.22,1.9,0l65.44-22.55c.32-.11.61-.27.86-.47.67-.52,1.07-1.31,1.12-2.16.01-.36-.03-.73-.16-1.1Zm-24.61,1.91c-.31,1.73-.89,3.42-1.82,4.97-2.81,4.66-6.96,7.36-12.55,7.79-3.01.25-5.84-.4-8.4-1.94-5.26-3.13-7.59-7.8-7.32-13.72.09-1.95.5-3.82,1.5-5.58,2.8-5.23,7.16-8.29,13.32-8.72,3-.22,5.8.57,8.35,2.08,5.52,3.26,7.95,9.35,6.92,15.12Zm17.45-6.72c-2.27.89-3.41,3.26-2.85,5.53.29,1.17.06,1.56-1.1,1.96-3.39,1.17-6.78,2.33-10.17,3.52-.6.2-1.14.09-1.55-.3-.37-.36-.33-.86-.19-1.36.5-1.91.96-3.83.9-5.84-.13-4.7-1.79-8.74-5.15-12.05-.51-.5-1.06-.98-1.66-1.37-.88-.59-.88-1.94.2-2.34,1.28-.48,2.6-.86,3.9-1.33,2.2-.79,4.43-1.53,6.65-2.3.39-.13.77-.18,1.11.08.39.13.58.43.72.8.87,2.36,3.03,3.46,5.45,2.8,1-.27,1.54.03,1.85,1.02.95,3.05,1.89,6.1,2.84,9.15.32,1.03.04,1.63-.95,2.03Zm-3.77-8.88c-.04-.14-.09-.29-.19-.4-.21-.23-.59-.22-.91-.2-2.27.1-4.54-1.09-5.77-3.01-.05-.07-.09-.14-.13-.21-.1-.17-.2-.35-.39-.4-.13-.04-.27,0-.4.05-2.1.73-4.21,1.44-6.31,2.17-.18.06-.5.17-.52.4-.01.21.3.43.43.57.41.45.82.9,1.19,1.37,3.56,4.38,5.05,10.39,3.95,15.92-.02.17-.02.41.15.44.06.01.11,0,.16-.02,2.19-.76,4.37-1.5,6.56-2.25.12-.04.25-.09.34-.2.17-.17.15-.43.14-.65-.16-2.48,1.11-4.99,3.2-6.33.21-.13.44-.27.49-.51.04-.15,0-.32-.05-.47-.65-2.09-1.29-4.18-1.94-6.27Zm-22.7,2.13c-1.79-.87-3.68-1.34-5.71-1.29-4.76.09-8.33,2.24-10.88,6.01-.91,1.33-1.49,2.85-1.81,4.48-.98,5.03,1.28,10.81,6.71,13.41,1,.53,2.25.92,3.57,1.1,5.71.8,10.66-2.12,13.22-6.56.41-.72.66-1.48.94-2.24.52-1.44.74-2.9.69-4.41-.1-2.73-.96-5.2-2.81-7.34-1.11-1.29-2.36-2.4-3.92-3.16Zm.33,15.44c-.07.45-.2.92-.42,1.24-.43.78-.93,1.39-1.59,1.83-.32.22-.4.42-.26.73.21.46.13.87-.1,1.29-.24.44-.58.61-1.04.58-.46-.01-.87-.17-1.06-.63-.05-.1-.1-.19-.12-.3-.09-.42-.31-.56-.75-.54-.88.04-1.74-.11-2.51-.53-1.11-.61-1.89-1.53-2.25-2.73-.21-.72.05-1.2.76-1.44.58-.21,1.28.08,1.59.64l.04.11c.52,1.61,2.91,1.92,3.99,1.05.68-.53,1.22-1.17,1.32-2.05.17-1.62-1.49-2.81-3.27-2.34-.51.14-1,.27-1.53.33-2,.22-3.6-.54-4.7-2.08-.75-1.05-.89-2.29-.64-3.61.25-1.35,1.08-2.23,2.09-3.04.28-.22.31-.41.2-.68-.15-.33-.22-.66-.12-1.01.15-.48.69-.89,1.18-.93.3-.02,1.15.59,1.22.95.11.5.35.62.87.6,2.02-.07,3.97,1.29,4.6,3.01.2.53.15,1-.23,1.41-.36.39-.84.45-1.35.33-.4-.12-.63-.43-.72-.78-.32-1.11-2.01-1.77-3.07-1.48-1.31.32-2.33,1.52-2.26,2.73.09,1.59,1.48,2.53,3.35,2.05.69-.2,1.4-.41,2.13-.34,2.91.23,5.29,2.35,4.65,5.63Zm-35.19,7.24c-.21.08-.43.15-.64.23.22.57.44,1.14.66,1.72.05.15.11.31.24.4.05.05.11.08.18.09.16.05.35.03.52.01,2.47-.22,5.02.97,6.42,3.01.13.19.28.41.51.44.14.03.27-.02.4-.06,2.18-.75,4.36-1.51,6.54-2.26.06-.02.11-.04.15-.09.11-.12-.03-.31-.15-.43-4.28-3.69-6.81-9.33-6.7-14.98.01-.6.05-1.21.09-1.82.03-.18.13-.55-.01-.71-.15-.17-.47-.06-.65,0-2.1.73-4.21,1.46-6.31,2.18-.13.05-.27.1-.35.21-.11.16-.08.37-.06.56.02.08.02.16.03.24.08.9-.03,1.81-.32,2.67-.23.71-.59,1.38-1.05,1.97,1.46.18,2.67,1.33,2.8,2.91.14,1.56-.88,3.21-2.3,3.71Zm14.83,3.06c-4.28-3.69-6.81-9.33-6.7-14.98.01-.6.05-1.21.09-1.82.03-.18.13-.55-.01-.71-.15-.17-.47-.06-.65,0-2.1.73-4.21,1.46-6.31,2.18-.13.05-.27.1-.35.21-.11.16-.08.37-.06.56.02.08.02.16.03.24.08.9-.03,1.81-.32,2.67-.23.71-.59,1.38-1.05,1.97,1.46.18,2.67,1.33,2.8,2.91.14,1.56-.88,3.21-2.3,3.71-.21.08-.43.15-.64.23.22.57.44,1.14.66,1.72.05.15.11.31.24.4.05.05.11.08.18.09.16.05.35.03.52.01,2.47-.22,5.02.97,6.42,3.01.13.19.28.41.51.44.14.03.27-.02.4-.06,2.18-.75,4.36-1.51,6.54-2.26.06-.02.11-.04.15-.09.11-.12-.03-.31-.15-.43Zm23.95-22.58c-1.11-1.29-2.36-2.4-3.92-3.16-1.79-.87-3.68-1.34-5.71-1.29-4.76.09-8.33,2.24-10.88,6.01-.91,1.33-1.49,2.85-1.81,4.48-.98,5.03,1.28,10.81,6.71,13.41,1,.53,2.25.92,3.57,1.1,5.71.8,10.66-2.12,13.22-6.56.41-.72.66-1.48.94-2.24.52-1.44.74-2.9.69-4.41-.1-2.73-.96-5.2-2.81-7.34Zm-3.59,12.28c-.07.45-.2.92-.42,1.24-.43.78-.93,1.39-1.59,1.83-.32.22-.4.42-.26.73.21.46.13.87-.1,1.29-.24.44-.58.61-1.04.58-.46-.01-.87-.17-1.06-.63-.05-.1-.1-.19-.12-.3-.09-.42-.31-.56-.75-.54-.88.04-1.74-.11-2.51-.53-1.11-.61-1.89-1.53-2.25-2.73-.21-.72.05-1.2.76-1.44.58-.21,1.28.08,1.59.64l.04.11c.52,1.61,2.91,1.92,3.99,1.05.68-.53,1.22-1.17,1.32-2.05.17-1.62-1.49-2.81-3.27-2.34-.51.14-1,.27-1.53.33-2,.22-3.6-.54-4.7-2.08-.75-1.05-.89-2.29-.64-3.61.25-1.35,1.08-2.23,2.09-3.04.28-.22.31-.41.2-.68-.15-.33-.22-.66-.12-1.01.15-.48.69-.89,1.18-.93.3-.02,1.15.59,1.22.95.11.5.35.62.87.6,2.02-.07,3.97,1.29,4.6,3.01.2.53.15,1-.23,1.41-.36.39-.84.45-1.35.33-.4-.12-.63-.43-.72-.78-.32-1.11-2.01-1.77-3.07-1.48-1.31.32-2.33,1.52-2.26,2.73.09,1.59,1.48,2.53,3.35,2.05.69-.2,1.4-.41,2.13-.34,2.91.23,5.29,2.35,4.65,5.63Zm24.31-11.3c-.65-2.09-1.29-4.18-1.94-6.27-.04-.14-.09-.29-.19-.4-.21-.23-.59-.22-.91-.2-2.27.1-4.54-1.09-5.77-3.01-.05-.07-.09-.14-.13-.21-.1-.17-.2-.35-.39-.4-.13-.04-.27,0-.4.05-2.1.73-4.21,1.44-6.31,2.17-.18.06-.5.17-.52.4-.01.21.3.43.43.57.41.45.82.9,1.19,1.37,3.56,4.38,5.05,10.39,3.95,15.92-.02.17-.02.41.15.44.06.01.11,0,.16-.02,2.19-.76,4.37-1.5,6.56-2.25.12-.04.25-.09.34-.2.17-.17.15-.43.14-.65-.16-2.48,1.11-4.99,3.2-6.33.21-.13.44-.27.49-.51.04-.15,0-.32-.05-.47Zm0,0c-.65-2.09-1.29-4.18-1.94-6.27-.04-.14-.09-.29-.19-.4-.21-.23-.59-.22-.91-.2-2.27.1-4.54-1.09-5.77-3.01-.05-.07-.09-.14-.13-.21-.1-.17-.2-.35-.39-.4-.13-.04-.27,0-.4.05-2.1.73-4.21,1.44-6.31,2.17-.18.06-.5.17-.52.4-.01.21.3.43.43.57.41.45.82.9,1.19,1.37,3.56,4.38,5.05,10.39,3.95,15.92-.02.17-.02.41.15.44.06.01.11,0,.16-.02,2.19-.76,4.37-1.5,6.56-2.25.12-.04.25-.09.34-.2.17-.17.15-.43.14-.65-.16-2.48,1.11-4.99,3.2-6.33.21-.13.44-.27.49-.51.04-.15,0-.32-.05-.47Zm-20.72-.98c-1.11-1.29-2.36-2.4-3.92-3.16-1.79-.87-3.68-1.34-5.71-1.29-4.76.09-8.33,2.24-10.88,6.01-.91,1.33-1.49,2.85-1.81,4.48-.98,5.03,1.28,10.81,6.71,13.41,1,.53,2.25.92,3.57,1.1,5.71.8,10.66-2.12,13.22-6.56.41-.72.66-1.48.94-2.24.52-1.44.74-2.9.69-4.41-.1-2.73-.96-5.2-2.81-7.34Zm-3.59,12.28c-.07.45-.2.92-.42,1.24-.43.78-.93,1.39-1.59,1.83-.32.22-.4.42-.26.73.21.46.13.87-.1,1.29-.24.44-.58.61-1.04.58-.46-.01-.87-.17-1.06-.63-.05-.1-.1-.19-.12-.3-.09-.42-.31-.56-.75-.54-.88.04-1.74-.11-2.51-.53-1.11-.61-1.89-1.53-2.25-2.73-.21-.72.05-1.2.76-1.44.58-.21,1.28.08,1.59.64l.04.11c.52,1.61,2.91,1.92,3.99,1.05.68-.53,1.22-1.17,1.32-2.05.17-1.62-1.49-2.81-3.27-2.34-.51.14-1,.27-1.53.33-2,.22-3.6-.54-4.7-2.08-.75-1.05-.89-2.29-.64-3.61.25-1.35,1.08-2.23,2.09-3.04.28-.22.31-.41.2-.68-.15-.33-.22-.66-.12-1.01.15-.48.69-.89,1.18-.93.3-.02,1.15.59,1.22.95.11.5.35.62.87.6,2.02-.07,3.97,1.29,4.6,3.01.2.53.15,1-.23,1.41-.36.39-.84.45-1.35.33-.4-.12-.63-.43-.72-.78-.32-1.11-2.01-1.77-3.07-1.48-1.31.32-2.33,1.52-2.26,2.73.09,1.59,1.48,2.53,3.35,2.05.69-.2,1.4-.41,2.13-.34,2.91.23,5.29,2.35,4.65,5.63Zm-20.36,10.3c-4.28-3.69-6.81-9.33-6.7-14.98.01-.6.05-1.21.09-1.82.03-.18.13-.55-.01-.71-.15-.17-.47-.06-.65,0-2.1.73-4.21,1.46-6.31,2.18-.13.05-.27.1-.35.21-.11.16-.08.37-.06.56.02.08.02.16.03.24.08.9-.03,1.81-.32,2.67-.23.71-.59,1.38-1.05,1.97,1.46.18,2.67,1.33,2.8,2.91.14,1.56-.88,3.21-2.3,3.71-.21.08-.43.15-.64.23.22.57.44,1.14.66,1.72.05.15.11.31.24.4.05.05.11.08.18.09.16.05.35.03.52.01,2.47-.22,5.02.97,6.42,3.01.13.19.28.41.51.44.14.03.27-.02.4-.06,2.18-.75,4.36-1.51,6.54-2.26.06-.02.11-.04.15-.09.11-.12-.03-.31-.15-.43Zm23.95-22.58c-1.11-1.29-2.36-2.4-3.92-3.16-1.79-.87-3.68-1.34-5.71-1.29-4.76.09-8.33,2.24-10.88,6.01-.91,1.33-1.49,2.85-1.81,4.48-.98,5.03,1.28,10.81,6.71,13.41,1,.53,2.25.92,3.57,1.1,5.71.8,10.66-2.12,13.22-6.56.41-.72.66-1.48.94-2.24.52-1.44.74-2.9.69-4.41-.1-2.73-.96-5.2-2.81-7.34Zm-3.59,12.28c-.07.45-.2.92-.42,1.24-.43.78-.93,1.39-1.59,1.83-.32.22-.4.42-.26.73.21.46.13.87-.1,1.29-.24.44-.58.61-1.04.58-.46-.01-.87-.17-1.06-.63-.05-.1-.1-.19-.12-.3-.09-.42-.31-.56-.75-.54-.88.04-1.74-.11-2.51-.53-1.11-.61-1.89-1.53-2.25-2.73-.21-.72.05-1.2.76-1.44.58-.21,1.28.08,1.59.64l.04.11c.52,1.61,2.91,1.92,3.99,1.05.68-.53,1.22-1.17,1.32-2.05.17-1.62-1.49-2.81-3.27-2.34-.51.14-1,.27-1.53.33-2,.22-3.6-.54-4.7-2.08-.75-1.05-.89-2.29-.64-3.61.25-1.35,1.08-2.23,2.09-3.04.28-.22.31-.41.2-.68-.15-.33-.22-.66-.12-1.01.15-.48.69-.89,1.18-.93.3-.02,1.15.59,1.22.95.11.5.35.62.87.6,2.02-.07,3.97,1.29,4.6,3.01.2.53.15,1-.23,1.41-.36.39-.84.45-1.35.33-.4-.12-.63-.43-.72-.78-.32-1.11-2.01-1.77-3.07-1.48-1.31.32-2.33,1.52-2.26,2.73.09,1.59,1.48,2.53,3.35,2.05.69-.2,1.4-.41,2.13-.34,2.91.23,5.29,2.35,4.65,5.63Zm3.59-12.28c-1.11-1.29-2.36-2.4-3.92-3.16-1.79-.87-3.68-1.34-5.71-1.29-4.76.09-8.33,2.24-10.88,6.01-.91,1.33-1.49,2.85-1.81,4.48-.98,5.03,1.28,10.81,6.71,13.41,1,.53,2.25.92,3.57,1.1,5.71.8,10.66-2.12,13.22-6.56.41-.72.66-1.48.94-2.24.52-1.44.74-2.9.69-4.41-.1-2.73-.96-5.2-2.81-7.34Zm-3.59,12.28c-.07.45-.2.92-.42,1.24-.43.78-.93,1.39-1.59,1.83-.32.22-.4.42-.26.73.21.46.13.87-.1,1.29-.24.44-.58.61-1.04.58-.46-.01-.87-.17-1.06-.63-.05-.1-.1-.19-.12-.3-.09-.42-.31-.56-.75-.54-.88.04-1.74-.11-2.51-.53-1.11-.61-1.89-1.53-2.25-2.73-.21-.72.05-1.2.76-1.44.58-.21,1.28.08,1.59.64l.04.11c.52,1.61,2.91,1.92,3.99,1.05.68-.53,1.22-1.17,1.32-2.05.17-1.62-1.49-2.81-3.27-2.34-.51.14-1,.27-1.53.33-2,.22-3.6-.54-4.7-2.08-.75-1.05-.89-2.29-.64-3.61.25-1.35,1.08-2.23,2.09-3.04.28-.22.31-.41.2-.68-.15-.33-.22-.66-.12-1.01.15-.48.69-.89,1.18-.93.3-.02,1.15.59,1.22.95.11.5.35.62.87.6,2.02-.07,3.97,1.29,4.6,3.01.2.53.15,1-.23,1.41-.36.39-.84.45-1.35.33-.4-.12-.63-.43-.72-.78-.32-1.11-2.01-1.77-3.07-1.48-1.31.32-2.33,1.52-2.26,2.73.09,1.59,1.48,2.53,3.35,2.05.69-.2,1.4-.41,2.13-.34,2.91.23,5.29,2.35,4.65,5.63Z"/>
        <g>
          <path class="cls-3" d="m1.13,39.81l10.17,31.08,2.92-1.81s1.5-3.44,1.58-3.69-1-6.33-1-6.33l-5.99-18.75-4.19-2.4H1.13v1.9Z"/>
          <path class="cls-4" d="m60.27,31.55c-.28-.99-.88-1.36-1.79-1.68-1.18-.42-2.35-.85-3.53-1.28-2.4-.88-4.82-1.75-7.28-2.45-2.35-.66-4.73-.66-7.12-.08-2.01.48-3.78,1.53-5.61,2.41-3.38,1.65-6.74,3.32-10.11,4.98-2.48,1.23-4.96,2.46-7.45,3.69-2.35,1.16-4.7,2.32-7.05,3.48-.26.13-.41.14-.58-.14-.8-1.32-1.93-2.22-3.32-2.91-1.79-.89-3.56-.88-5.41-.37-.78.22-1.2,1.01-.94,1.76.46,1.3.82,2.63,1.24,3.93,1.72,5.4,3.46,10.79,5.18,16.19,1.31,4.08,2.6,8.16,3.91,12.25.19.56.93.97,1.5.79.8-.24,1.53-.65,2.19-1.18.74-.57,1.31-1.29,1.89-2.01.25-.5.5-1,.75-1.51.28-.96.5-1.93.52-2.94,0-.25.02-.43.33-.24.11.07.24.07.37.1,1.75.39,3.52.73,5.25,1.21,2.53.7,5,.62,7.46-.24,4.18-1.46,8.39-2.91,12.56-4.42,1.14-.4,2.27-.82,3.4-1.24.85-.31,1.7-.62,2.54-.95.17-.06.35-.12.52-.19.82-.31,1.61-.72,2.22-1.36,2.29-2.38,1.75-7.11-.95-8.96-.34-.24-.74-.36-1.15-.44-.18-.04-.35-.06-.53-.08-.92-.12-1.87-.05-2.81.11-2.13.38-4.26,1.28-6.22,1.88-.27.08-.53.17-.8.26-.76.25-1.51.54-2.27.82-1.36.48-.31-1.16,0-1.58.49-.67.91-1.38,1.28-2.1,1.22-2.29,2.06-4.76,3.52-6.92,1.17-1.73,3.08-2.24,5.04-2.57,3.12-.53,6.08-1.56,9.05-2.64,1.01-.37,2.07-.69,3.06-1.13.53-.23,1.04-.63,1.2-1.19.01-.04.02-.07.02-.11.02-.08.02-.17.03-.25,0-.24-.04-.47-.11-.7ZM12.32,69.08c-2.11-6.61-4.22-13.22-6.33-19.82l-2.03-6.35c-.16-.53-.33-1.06-.5-1.59-.13-.41-.51-1.09-.48-1.52.06-.88,1.84-.34,2.33-.1,1.02.49,1.8,1.38,2.36,2.36.55.99.9,2.08,1.24,3.15,1.6,5,3.2,10,4.8,15,.5,1.56,1.01,3.17.93,4.8,0,.06-.01.12-.01.17-.12,1.59-.89,3.2-2.31,3.9Zm27.19-28.18c-.7,1.07-1.34,2.18-2.05,3.26-.13.22-.27.44-.42.65-.89,1.32-1.62,2.75-2.58,4.02-.35.48-.6,1.04-.8,1.61-.29.86-.08,1.67.56,2.31.69.69,1.53.92,2.46.59,1.17-.41,2.35-.83,3.52-1.24.92-.33,1.84-.65,2.76-.98.14-.05.28-.1.42-.15,1.11-.39,2.22-.81,3.34-1.18.51-.17,1.02-.22,1.51-.15,1.46.18,2.67,1.33,2.8,2.91.14,1.56-.88,3.21-2.3,3.71-.21.08-.43.15-.64.23-.78.28-1.56.56-2.34.84-1.12.39-2.23.79-3.34,1.19-.82.29-1.64.58-2.45.87-2.62.92-5.23,1.87-7.85,2.78-1.71.59-3.37,1.33-5.23,1.37-1.6.05-3.12-.39-4.65-.74-1.79-.41-3.57-.83-5.36-1.22-.21-.05-.24-.12-.29-.3-1.61-5.08-3.24-10.15-4.86-15.23-.26-.83-.49-1.68-.78-2.5-.13-.37.01-.48.3-.63,3.4-1.66,6.78-3.33,10.18-5.01,5.78-2.85,11.56-5.7,17.34-8.55,2.68-1.32,5.49-1.62,8.34-.76,1.3.4,2.6.88,3.88,1.38.83.34,1.73.52,2.56.84,1.12.45,2.31.72,3.41,1.39-1.1.4-2.2.79-3.3,1.18-2.02.72-4.03,1.43-6.05,2.15-.32.12-.64.15-.98.14-2.19-.12-4.04.52-5.36,2.4-.29.42-.55.85-.81,1.28-.3.52-.6,1.04-.94,1.54Z"/>
        </g>
      </g>
    </g>
  </g>
</svg>