<svg width="20" height="20" viewBox="0 0 20 20" fill="currentColor" xmlns="http://www.w3.org/2000/svg">
<path d="M19.0909 20C18.8498 20 18.6186 19.9039 18.4481 19.7328C18.2776 19.5617 18.1818 19.3296 18.1818 19.0877C18.1818 15.1191 14.5455 11.8895 10 11.8895C5.45455 11.8895 1.81818 15.1191 1.81818 19.0877C1.81818 19.3296 1.7224 19.5617 1.55192 19.7328C1.38143 19.9039 1.1502 20 0.909091 20C0.667985 20 0.436753 19.9039 0.266266 19.7328C0.0957783 19.5617 0 19.3296 0 19.0877C0.0612075 17.1853 0.713777 15.3498 1.8663 13.8382C3.01883 12.3265 4.6136 11.2145 6.42728 10.6579C6.20238 10.4843 5.98976 10.2953 5.79092 10.0922C4.97325 9.25941 4.41911 8.20267 4.19816 7.05476C3.97722 5.90685 4.09931 4.719 4.5491 3.64052C4.9989 2.56205 5.75631 1.64106 6.72616 0.993326C7.69601 0.345587 8.83501 0 10 0C11.165 0 12.304 0.345587 13.2738 0.993326C14.2437 1.64106 15.0011 2.56205 15.4509 3.64052C15.9007 4.719 16.0228 5.90685 15.8018 7.05476C15.5809 8.20267 15.0268 9.25941 14.2091 10.0922C14.0103 10.2953 13.7976 10.4843 13.5727 10.6579C15.3864 11.2145 16.9812 12.3265 18.1337 13.8382C19.2862 15.3498 19.9388 17.1853 20 19.0877C20 19.3296 19.9042 19.5617 19.7337 19.7328C19.5632 19.9039 19.332 20 19.0909 20ZM10 1.7536C9.17849 1.74457 8.3729 1.98125 7.68595 2.43347C6.99899 2.88569 6.4618 3.53297 6.14283 4.29277C5.82386 5.05258 5.73757 5.89049 5.89497 6.6997C6.05237 7.5089 6.44633 8.25274 7.02662 8.83639C7.6069 9.42003 8.34723 9.81703 9.15322 9.97679C9.95921 10.1365 10.7944 10.0518 11.5522 9.73339C12.31 9.41498 12.9562 8.87732 13.4083 8.18893C13.8605 7.50054 14.0981 6.69262 14.0909 5.86817C14.0838 4.78071 13.6508 3.73967 12.8854 2.96984C12.12 2.20002 11.0836 1.76316 10 1.7536Z" fill="currentColor"/>
</svg>
