<?xml version="1.0" encoding="UTF-8"?>
<svg id="Calque_2" data-name="Calque 2" xmlns="http://www.w3.org/2000/svg" xmlns:xlink="http://www.w3.org/1999/xlink" viewBox="0 0 189.37 109.09">
  <defs>
    <style>
      .cls-1 {
        fill: #239451;
      }

      .cls-2 {
        fill: #fff;
      }

      .cls-3 {
        fill: url(#Dégradé_sans_nom_48);
      }

      .cls-4 {
        fill: #f9c8c0;
      }

      .cls-5 {
        fill: url(#Dégradé_sans_nom_48-2);
      }
    </style>
    <linearGradient id="Dégradé_sans_nom_48" data-name="Dégradé sans nom 48" x1="84" y1="28.09" x2="84" y2="52.4" gradientUnits="userSpaceOnUse">
      <stop offset="0" stop-color="#e84263"/>
      <stop offset="1" stop-color="#eb6174"/>
    </linearGradient>
    <linearGradient id="Dégradé_sans_nom_48-2" data-name="Dégradé sans nom 48" x1="84" y1="28.69" x2="84" y2="51.99" xlink:href="#Dégradé_sans_nom_48"/>
  </defs>
  <g id="Calque_1-2" data-name="Calque 1">
    <g>
      <path class="cls-1" d="m84.32,95.42c-.28.78-.59,1.54-.83,2.33-.25.84-.69,1.09-1.57.9-2.12-.48-2.13-.44-2.12,1.74,0,.41.01.83,0,1.24-.05,1.18-.01,2.31.92,3.23.32.31.51.79.12,1.23-.41.47-.87.34-1.35.1-1.71-.88-1.99-1.45-1.64-3.39.12-.65.17-1.32.36-1.95.76-2.51-.16-4.52-1.74-6.39-3.18-3.76-7.08-6.31-11.95-7.28-.71-.14-1.17-.57-1.53-1.16-.67-1.09-1.36-2.18-2.04-3.27-.43-.68-.99-1-1.85-.98-1.78.04-3.55-.1-5.33-.32-1.39-.17-2.02-1.15-2.67-2.19-.21-.34-.37-.87-.82-.84-.44.02-.39.57-.51.9-.2.52-.59.64-1.08.65-1.79.06-3.56-.17-5.33-.29-.69-.04-.99-.55-1.23-1.1-.67-1.52-1.61-2.89-2.41-4.34-.47-.86-1-1.15-1.87-.5-1.18.87-2.37.84-3.56-.02-1.44-1.04-2.97-1.75-4.85-1.47-.74.11-1.44-.33-2.13-.62-.44-.18-.85-.55-1.55-.25.66.89,1.3,1.73,1.91,2.59.85,1.2.39,2.64-1.04,2.86-2.96.46-5.94.47-8.85-.42-.54-.16-.84-.5-.46-.99,1.65-2.14.65-4.4.48-6.68-.22-2.96-2.23-4.7-3.9-6.71-.24-.29-.54-.52-.75-.83-1.02-1.53-2.3-2.26-4.19-1.7-.94.28-1.7-.29-2.27-.98-.71-.86-1.56-1.13-2.64-.98-.69.1-1.41.09-2.07-.23-.51-.25-.95-.58-.96-1.19,0-.58.34-1.02.82-1.32.43-.27.93-.34,1.43-.34,4.27-.04,8.51-.51,12.73-1.14,1.74-.26,3.47.06,5.21.14,1.73.07,3.46-2.01,3.12-3.82-.21-1.1-.57-2.16-.83-3.25-.11-.47-.41-.7-.84-.8-2.55-.6-4.73-1.99-6.96-3.25-.81-.46-1.26-.33-1.73.41-.66,1.05-1.36,2.08-2.05,3.11-.15.22-.24.61-.62.44-.26-.12-.21-.43-.2-.67.06-1.28.07-2.57.23-3.84.13-1.11-.36-1.6-1.35-1.84-.68-.16-1.35-.38-2.03-.6-.71-.23-.98-.53-.35-1.22,2.79-3.04,1.61-3.03,5.36-1.13,4.25,2.16,8.74,3.02,13.47,2.81.87-.04,1.61-.89,1.51-1.73-.08-.64-.57-.62-1.03-.63-1.16-.02-2.32-.05-3.48-.03-.81.02-1.04-.39-.9-1.09.13-.65.34-1.28.5-1.92.08-.31.37-.67.08-.93-.35-.31-.69.07-1.01.2-1.03.45-2.03.93-3.06,1.38-.44.19-.94.6-1.35.09-.35-.44-.26-1.04-.05-1.54.12-.3.42-.52.55-.82.17-.39.21-.83-.13-1.16-.29-.28-.63-.1-.93.04-3.08,1.48-6.45,1.47-9.72,1.7-1.43.1-2.79-.59-4.15.67-.63.59-1.84,0-2.76-.19-.54-.11-.46-.63-.38-1.04.16-.9.31-1.8.53-2.68.28-1.14.31-2.21-.44-3.2-.41-.54-.13-.91.29-1.26.93-.76,1.83-1.56,2.79-2.29.76-.58.65-1.02-.08-1.5-.45-.3-.83-.69-1.29-.97-.9-.54-.77-1.05-.17-1.78,2.52-3.1,2.5-3.11,6.5-3.19.12,0,.25,0,.37,0,.87-.06,1.84.28,2.57-.16.82-.49.49-1.58.69-2.4.29-1.24,1.47-1.66,2.59-1,1.7,1.01,3.55.42,5.33.39.44,0,.47-.53.47-.9,0-.74.44-1.02,1.08-1.11,1.11-.14,2.22-.25,3.33-.41.72-.1.93.2.97.89.1,1.75.35,1.89,2.05,1.54,1.42-.3,2.76-.6,3.01-2.4.09-.62.65-.93,1.3-.94,2.3-.04,4.64-.52,6.8.76.85.51,1.49.09,2.05-.56.19-.22.41-.42.62-.61.24-.21.44-.58.83-.39.31.15.21.51.22.79.02.87.04,1.74,0,2.61-.04.85.29,1.25,1.17,1.14,1.26-.16,2.28-.13,2.74,1.49.27.94,1.46.48,2.24.47.8-.02.64-.72.65-1.24.02-.91.04-1.83,0-2.74-.03-.84.32-1.21,1.16-1.24.91-.04,1.83-.05,2.72-.23,2.52-.49,4.53.65,6.44,2.01,1.03.73,1.61.56,2.26-.47.75-1.19,1.64-2.3,2.54-3.38.55-.66.59-1.22.04-1.86-.27-.31-.48-.68-.75-.99-.51-.58-.37-1.04.22-1.44,1.13-.76,2.28-1.51,3.4-2.29.48-.33.84-.17,1.23.12.94.69,1.89,1.34,2.81,2.05.64.5,1.16.48,1.49-.28.39-.88,1.05-1.18,1.96-1.26,1.15-.1,2.3-.31,3.45-.44.93-.11,1.8-.34,2.46-1.05.65-.7,1.02-.44,1.33.32.38.94.65,1.94,1.37,2.82.53-.6.55-1.29.74-1.9.25-.81.71-1.29,1.62-1.2.33.03.66,0,.99,0,1.56.03,2.15-.34,1.98,1.83-.07.89.43,1.22,1.22,1.14,1.35-.14,1.6.54,1.53,1.71-.15,2.7-.12,2.73,2.55,3.25.75.15,1.05.51.92,1.17-.48,2.58.64,4.33,2.85,5.43,2.27,1.12,2.36,2.95,1.78,4.99-.32,1.15.11,1.68,1.13,2.05,1.09.4,2.13.91,3.21,1.34.84.34,1.24.91,1.16,1.83-.08.87-.12,1.74-.16,2.6-.06,1.17.77,1.08,1.53,1.06.72-.01,1.67.19,1.51-1.02-.2-1.51.57-2.22,1.81-2.85,2.4-1.21,4.71-2.61,7.09-3.87.94-.5,1.29-1.37,1.73-2.2.38-.72.84-1.07,1.69-.84.56.15,1.15.17,1.72.27,1.15.2,2.22.14,3.09-.81.23-.25.55-.65.94-.48.46.21.26.74.27,1.12.03,1.19,0,2.39,0,3.74.76-.4,1.14-1,1.62-1.47.52-.51,1.06-.9,1.87-.62.83.29,1.13.88,1.22,1.69.25,2.34.25,2.29,2.59,2.12,1.1-.08,1.58-.5,1.57-1.59-.01-1.02.55-1.51,1.51-1.19,2.87.97,4.71-.25,6.29-2.58,1.09-1.61,4.1-2.24,5.9-1.56.61.23.46.58.18.96-.49.67-.97,1.34-1.48,2-.46.6-.52,1.08.22,1.53,1.17.71,2.3,1.48,3.45,2.22.62.4,1.32.44,2.04.44,3.07,0,6.14.01,9.2-.03,1.09-.02,1.65.37,1.91,1.48.44,1.94,1.04,3.84,1.54,5.76.28,1.09.87,1.93,1.73,2.65,1.8,1.51,3.41,3.28,5.92,3.69.84.14,1.4.09,1.85-.74.75-1.39,1.68-2.52,3.54-2.45.91.03,1.27-.99,1.77-1.61.63-.77,1.16-1.11,1.98-.24.61.65,1.47.7,2.32.68.54-.01,1.08.02,1.62.02,1.11,0,1.54.57,1.45,1.66-.09,1.24-.12,2.48-.16,3.72-.03,1.15-.05,2.23.82,3.25.86,1.02.62,4.19-.34,4.89-2.39,1.73-2.25,4.19-1.77,6.51.65,3.2.88,6.39.76,9.63-.03.93.22,1.67.88,2.35,1.56,1.6.88,3.6.78,5.44-.04.76-.96.46-1.48.34-1.39-.33-2.61-.11-3.73.8-.6.49-1.04,1.06-1.31,1.77-1.48,3.91-3.24,7.72-4.27,11.8-.27,1.06-.75,1.43-1.95,1.28-1.88-.24-3.13-1.2-4.02-2.75-.52-.91-1.22-1.36-2.3-1.4-1.07-.05-2.13-.28-3.19-.45-.8-.13-1.2.1-1.3,1.01-.25,2.28-.29,2.38-2.56,2.48-3.26.14-5.05,2.11-6.33,4.78-.36.75-.78,1.18-1.66,1.22-4.14.21-8.27.5-12.4.68-1.32.06-2.54.3-3.7.9-1.77.92-3.52,1.86-5.3,2.73-.79.39-1.06.95-1.05,1.78.02,1.53-.02,3.07-.01,4.6,0,.89-.32,1.43-1.24,1.74-3.14,1.08-6.23,2.27-9.06,4.05-.82.52-1.75.75-2.72.79-1.34.05-2.41-.38-3.09-1.64-.45-.84-.99-1.18-1.73-.15-.5.7-1.2,1.26-1.82,1.86-.21.2-.48.41-.77.21-.28-.2-.16-.53-.1-.81.14-.63.7-.89,1.14-1.26.22-.18.51-.36.48-.68-.04-.44-.47-.4-.76-.49-2.47-.8-4.98-.59-7.5-.37-2.97.27-5.94.46-8.91.73-.73.06-1.17-.2-1.52-.81-.83-1.45-1.67-2.88-3.52-3.24-.44-.09-.72-.47-.55-.95.21-.56.72-.81,1.28-.84.6-.03,1.12.27,1.64.53,1.41.72,2.86,1.3,4.37,1.78.88.28,1.5.08,1.98-.75.48-.84,1-1.53.26-2.58-1.36-1.94-3.07-3.16-5.46-3.44-.81-.1-1.06.11-.75.82.46,1.07-.11,1.23-.96,1.21-.37,0-.76.08-1.12-.01-1.53-.38-2.56.06-3.08,1.62-.23.69-.71.48-1.18.13-1.47-1.11-2.76-2.36-3.23-4.28l-.31.1Z"/>
      <g>
        <g>
          <g>
            <path class="cls-1" d="m83.01,30.52c-.22,0-.48-.2-.55-.4-.14-.42-1.04-1.48-1.64-2.1-1.82-1.74-1.77-3.47-1.67-4.14.05-.31.32-.54.63-.54.19,0,.36.08.48.22.36.41.69.57,1.29.88.36.18.79.39,1.34.72.89.52,1.38,1.16,1.65,1.67.91-.91,1.98-1.18,2.46-1.26.03,0,.08,0,.1,0,.18,0,.36.08.48.21.12.13.18.31.16.5-.06.52-.2.88-.21.92-.41,1.16-1.25,2.18-2.51,3.03-.41.29-.79.3-.89.3h-1.12Z"/>
            <path class="cls-2" d="m79.79,23.85s.08.02.11.05c.66.75,1.27.82,2.75,1.69,1.62.95,1.72,2.27,1.72,2.27.87-1.38,2.24-1.72,2.72-1.79,0,0,.02,0,.02,0,.08,0,.15.07.14.15-.05.46-.18.79-.18.79-.6,1.72-2.12,2.65-2.39,2.84-.25.17-.51.18-.55.18,0,0,0,0,0,0h-1.12s-.06-.02-.08-.06c-.24-.72-1.75-2.29-1.75-2.29-1.65-1.58-1.63-3.1-1.53-3.71.01-.07.07-.12.14-.12m0-1c-.56,0-1.04.4-1.13.96-.12.74-.18,2.67,1.83,4.59.69.71,1.4,1.61,1.5,1.88.15.44.56.74,1.02.74h1.12s0,0,0,0c.19,0,.66-.03,1.12-.35l.05-.03c1.35-.91,2.26-2.01,2.71-3.29,0,0,.17-.43.23-1.01.04-.32-.07-.64-.28-.88-.22-.24-.53-.38-.85-.38-.05,0-.13,0-.18.01-.46.07-1.38.3-2.26.99-.33-.45-.81-.92-1.51-1.33-.56-.33-1.01-.55-1.37-.73-.58-.29-.85-.42-1.14-.76-.22-.25-.53-.39-.86-.39h0Z"/>
          </g>
          <g>
            <path class="cls-4" d="m84.06,60c-.25,0-.49-.15-.59-.38-.69-1.49-2.01-1.68-3.55-1.89-.57-.08-1.16-.17-1.73-.32-1.72-.48-2.58-2.25-2.94-3.26,0,0-.11-.34-.13-.41-.06-.2-.02-.43.11-.6.13-.17.33-.27.55-.27h16.8c.15,0,.29.07.39.19.09.12.13.27.1.42l-.09.34s-.06.19-.06.2l-.07.21c-.36.99-1.22,2.72-2.91,3.19-.57.16-1.16.24-1.73.32-1.54.22-2.86.41-3.55,1.89-.11.23-.34.38-.59.38Z"/>
            <path class="cls-2" d="m92.58,53.35s0,.04-.03.1c0,0,0,.02,0,.03,0,.02-.01.05-.02.07-.01.05-.03.11-.05.17-.01.03-.02.07-.03.1-.02.06-.05.13-.07.21-.33.91-1.1,2.47-2.57,2.88-2.03.57-4.51.13-5.6,2.49-.03.06-.08.09-.14.09s-.11-.03-.14-.09c-1.09-2.36-3.57-1.92-5.6-2.49-1.51-.42-2.28-2.04-2.6-2.95-.02-.05-.03-.1-.05-.14-.03-.09-.05-.17-.07-.24-.03-.12.05-.24.18-.24h16.8m0-1h-16.8c-.37,0-.73.18-.95.47-.22.3-.29.69-.19,1.04.02.08.05.17.08.27l.05.14c.4,1.13,1.35,3.06,3.28,3.6.6.17,1.21.25,1.8.34,1.66.23,2.62.43,3.17,1.61.19.41.6.67,1.04.67s.86-.26,1.05-.67c.55-1.18,1.51-1.37,3.17-1.61.59-.08,1.2-.17,1.8-.34,1.91-.54,2.85-2.42,3.24-3.5l.06-.17.02-.05s.01-.03.02-.05l.02-.05s.01-.04.02-.05l.02-.05.04-.14s.01-.04.02-.06c0-.01,0-.03.01-.05.03-.1.04-.15.04-.15.06-.29-.02-.6-.21-.83-.19-.23-.47-.37-.77-.37h0Zm0,2h0,0Z"/>
          </g>
          <g>
            <path class="cls-3" d="m92.37,54.53c-.1,0-.21-.03-.29-.09-.03,0-.22-.05-.23-.05-.18-.05-.35-.09-.52-.13-.32-.07-.64-.14-.97-.19-.51-.07-1.02-.11-1.53-.11-.21,0-.42,0-.63.02-.75.05-1.51.14-2.25.24-1.04.14-2.13.27-3.21.27-.2,0-.4,0-.59-.01-.62-.03-1.24-.1-1.86-.17-.57-.06-1.14-.12-1.71-.16-.22-.01-.44-.02-.66-.02-.32,0-.64.01-.96.05l-.25.03c-.18.02-.35.03-.52.07-.09.02-.12.03-.13.04-.09.12-.21.18-.35.18-.03,0-.07,0-.1,0-.19-.03-.31-.2-.36-.38l-.03-.1c-.07-.21-.12-.38-.16-.55-.51-1.97-.43-4.16-.36-6.28.02-.7.05-1.39.05-2.04v-11.44c0-2.14,1.15-3.31,3.23-3.31h12.13c2.11,0,3.27,1.18,3.27,3.31v7.35c0,.59-.48,1.07-1.07,1.07h-1.06c1.39.36,2.14,1.46,2.14,3.18v5.78c0,.79-.1,1.61-.3,2.38,0,0-.12.42-.12.42,0,0-.11.31-.11.31-.05.15-.18.27-.33.31-.04.01-.09.02-.14.02Zm-8.31-4.82v-2.78s-.01-.02-.03-.03v2.81h.03Zm.57-7.71c-.34-.18-.56-.54-.56-.94v-2.32l-.03,3.27h.59Z"/>
            <path class="cls-2" d="m90.09,30.9c1.94,0,2.77,1.07,2.77,2.81v7.35c0,.32-.26.57-.57.57h-7.15c-.32,0-.57-.26-.57-.57v-2.32c0-.31-.16-.55-.51-.55s-.51.24-.51.55v3.37c0,.22.18.39.4.39h6.2c1.9,0,2.73,1.07,2.73,2.81v5.78c0,.69-.09,1.48-.28,2.26h0s-.01.07-.02.1c0,0,0,.02,0,.03,0,.02-.01.05-.02.07-.01.05-.03.11-.05.17-.01.03-.02.07-.03.1-.02.06-.05.13-.07.21-.11-.08-.28-.1-.4-.13-.17-.05-.35-.09-.52-.13-.33-.08-.67-.15-1.01-.19-.53-.08-1.06-.12-1.6-.12-.22,0-.44,0-.66.02-1.82.11-3.61.51-5.43.51-.19,0-.38,0-.57-.01-1.19-.06-2.37-.26-3.57-.32-.23-.01-.46-.02-.69-.02-.34,0-.68.02-1.02.05-.28.03-.56.04-.84.11-.13.03-.28.07-.35.16-.02-.05-.03-.1-.05-.14-.05-.16-.1-.31-.14-.47-.66-2.56-.3-5.63-.3-8.2v-11.44c0-1.74.83-2.81,2.73-2.81h12.13m-6.54,19.32h.99s.02,0,.02-.01v-3.27c0-.36-.45-.66-1.01-.66-.01,0-.02,0-.02.01v3.92s0,.01.02.01m6.54-20.32h-12.13c-2.33,0-3.73,1.43-3.73,3.81v11.44c0,.64-.02,1.31-.05,2.02-.07,2.16-.15,4.39.38,6.43.04.17.1.35.15.52l.05.15c.12.36.43.62.8.68.05,0,.1.01.15.01.21,0,.42-.07.59-.19.13-.03.28-.04.44-.06.09,0,.18-.02.27-.03.28-.03.57-.05.9-.05.21,0,.42,0,.63.02.55.03,1.1.09,1.68.15.61.07,1.25.14,1.89.17.2.01.41.02.62.02,1.12,0,2.22-.14,3.28-.28.77-.1,1.49-.19,2.22-.24.2-.01.4-.02.6-.02.48,0,.97.04,1.46.1.28.04.57.1.93.18.16.04.32.08.49.12.06.01.1.02.15.03h.02c.15.09.32.13.49.13.09,0,.18-.01.28-.04.31-.09.56-.32.66-.62l.06-.17.02-.05s.03-.08.04-.13l.02-.08.04-.14s.01-.04.02-.06c0-.01,0-.03.01-.05,0-.03.01-.05.02-.08,0-.01,0-.02,0-.03.2-.81.31-1.68.31-2.5v-5.78c0-1.19-.35-2.14-.98-2.8.58-.23.98-.8.98-1.46v-7.35c0-2.42-1.37-3.81-3.77-3.81h0Z"/>
          </g>
        </g>
        <g>
          <path class="cls-1" d="m82.94,29.97s.04.06.08.06h1.12s.29,0,.56-.18,1.78-1.12,2.39-2.84c0,0,.13-.33.18-.79.01-.09-.07-.17-.16-.15-.48.08-1.85.42-2.72,1.79,0,0-.1-1.31-1.72-2.27-1.49-.88-2.1-.94-2.75-1.69-.08-.09-.23-.05-.25.07-.1.61-.12,2.13,1.53,3.71,0,0,1.51,1.57,1.75,2.29Z"/>
          <path class="cls-4" d="m92.58,53.35s0,.04-.03.1c0,0,0,.02,0,.03,0,.02-.01.05-.02.07-.01.05-.03.11-.05.17-.01.03-.02.07-.03.1-.02.06-.05.13-.07.21-.33.91-1.1,2.47-2.57,2.88-2.03.57-4.51.13-5.6,2.49-.05.12-.22.12-.27,0-1.09-2.36-3.57-1.92-5.6-2.49-1.51-.42-2.28-2.04-2.6-2.95-.02-.05-.03-.1-.05-.14-.03-.09-.05-.17-.07-.24-.03-.12.05-.24.18-.24h16.8Z"/>
          <path class="cls-5" d="m85.14,41.63h7.15c.32,0,.57-.26.57-.57v-7.35c0-1.74-.83-2.81-2.77-2.81h-12.13c-1.9,0-2.73,1.07-2.73,2.81v11.44c0,2.57-.36,5.65.3,8.2.04.16.09.32.14.47.01.04.03.09.05.14.07-.09.22-.13.35-.16.27-.07.56-.08.84-.11.56-.07,1.13-.07,1.7-.04,1.19.07,2.37.26,3.57.32,2.02.1,4-.38,6-.5.75-.05,1.51-.01,2.25.1.34.05.68.12,1.01.19.17.04.35.08.52.13.12.03.29.05.4.13.03-.07.05-.14.07-.21.01-.03.02-.07.03-.1.02-.07.04-.12.05-.17,0-.02.01-.05.02-.07,0-.01,0-.02,0-.03,0-.03.02-.07.02-.1h0c.2-.78.28-1.57.28-2.26v-5.78c0-1.74-.83-2.81-2.73-2.81h-6.2c-.22,0-.4-.18-.4-.39v-3.37c0-.31.16-.55.51-.55s.51.24.51.55v2.32c0,.31.26.57.57.57Zm-1.58,4.65c.56,0,1.01.29,1.01.66v3.27s0,.01-.02.01h-.99s-.02,0-.02-.01v-3.92s.01-.01.02-.01Z"/>
        </g>
      </g>
    </g>
  </g>
</svg>