<?xml version="1.0" encoding="UTF-8"?>
<svg id="Calque_2" data-name="Calque 2" xmlns="http://www.w3.org/2000/svg" viewBox="0 0 171.78 83.3">
  <defs>
    <style>
      .cls-1, .cls-2 {
        stroke: #161917;
        stroke-width: 1.7px;
      }

      .cls-1, .cls-2, .cls-3, .cls-4 {
        fill-rule: evenodd;
      }

      .cls-1, .cls-2, .cls-5 {
        fill: none;
      }

      .cls-1, .cls-5 {
        stroke-linecap: round;
        stroke-linejoin: round;
      }

      .cls-6 {
        fill: #219252;
      }

      .cls-2 {
        stroke-miterlimit: 10;
      }

      .cls-3 {
        fill: #239451;
      }

      .cls-5 {
        stroke: #fff;
        stroke-width: 2px;
      }

      .cls-7, .cls-4 {
        fill: #e84263;
      }

      .cls-8 {
        fill: #12110c;
      }
    </style>
  </defs>
  <g id="Calque_1-2" data-name="Calque 1">
    <g>
      <g>
        <path class="cls-6" d="m137.22,9.84c.61.14,1.24.25,1.84.42,1.98.55,2.82,1.9,2.45,3.93-.35,1.94-1.14,3.76-1.7,5.64-1.48,5.04-2.52,10.16-3.03,15.4-.75,7.7.38,15.16,2.57,22.51.94,3.14,2.05,6.22,3.29,9.26.95,2.33,1.11,4.63-.39,6.83-.33.49-.15.81.37.93.76.18,1.41.63,2.12.92.73.3.88.74.54,1.46-.39.83-1.14,1.18-2.02.94-.43-.12-.85-.23-1.3-.27-1.55-.11-2.36.41-2.85,1.9-.15.47-.23.95-.38,1.42-.28.9-1.4,1.59-2.36.6-1.15-1.18-2.59-1.26-4.05-.43-1.06.59-2,1.4-3.15,1.83-.3.11-.61.32-.9-.02-.26-.31-.35-.67-.19-1.05.19-.45.44-.88.65-1.32.74-1.57.4-2.69-1.14-3.43-1.51-.72-2.49-1.87-2.88-3.43-1.33-5.38-3.49-10.47-5.25-15.7-.35-1.04-.73-2.09-.94-3.16-.39-1.97-1.62-3.3-3.05-4.57-4.92-4.35-10.48-7.77-16.05-11.19-1.84-1.13-3.62-2.33-5.36-3.6-.28-.21-.54-.45-.79-.69-1.18-1.18-1.14-2.31.21-3.31,1.98-1.46,4.11-2.7,6.24-3.92,1.81-1.04,3.73-1.83,5.7-2.53,3.43-1.22,6.3-.21,8.86,2.08,1.74,1.55,2.58,3.48,2.46,5.86-.15,2.99-.17,5.98-.25,8.97,0,.04.04.08.09.2,1.41-.77,2.17-1.95,2.35-3.5.3-2.53.55-5.07.85-7.6.51-4.27,1.3-8.47,3.28-12.35,2.62-5.12,6.97-7.83,12.48-8.91.14-.03.27-.07.4-.11.42,0,.84,0,1.26,0Zm-3.52,65.86c1.35,0,2.52-.53,3.55-1.32,1.73-1.32,2.59-3.1,2.21-5.28-.56-3.21-1.63-6.29-2.67-9.37-.93-2.74-2.14-5.39-2.75-8.24-.29-1.36-.95-2.58-1.95-3.6-.34-.35-.51-.33-.63.17-.18.77-.33,1.56-.65,2.29-.48,1.1-1.24,1.56-2.44,1.5-.96-.05-1.52-.65-1.95-1.41-.39-.69-.7-1.44-1.12-2.1-.6-.93-1.44-.99-2.23-.22-.13.13-.26.27-.38.42-1.54,1.97-1.86,4.16-.99,6.48.69,1.86,1.48,3.69,2.11,5.58,1.19,3.55,2.34,7.11,3.6,10.63.88,2.46,3.79,4.45,6.3,4.47Z"/>
        <path class="cls-7" d="m171.78,24.73c-.08.29-.16.58-.24.88-.63,2.43-2.33,3.96-4.8,4.31-1.6.23-3.17,0-4.72-.38-.41-.1-.52-.28-.25-.63,1.99-2.57,4.25-4.75,7.66-5.25.81-.12,1.58.02,2.36.23v.84Z"/>
        <path class="cls-6" d="m157.8,29.88c2.7.36,5.49,1.22,7.31,3.93,1.13,1.68,1.33,3.62,1.27,5.59-.11,3.4-1.02,6.7-1.39,10.07-.19,1.76-.04,3.5.13,5.25.25,2.65.64,5.28.38,7.97-.59,6.26-5.8,11.64-12.03,12.38-1.76.21-3.45-.01-5.12-.54-.96-.3-1.89-.68-2.84-1.01-.41-.14-.58-.31-.36-.76.77-1.62.68-3.29.12-4.92-.84-2.43-1.88-4.79-2.68-7.24-1.21-3.72-2.26-7.48-2.92-11.34-.1-.58.02-.97.43-1.38.96-.96,1.88-1.96,2.84-2.92,1.89-1.91,3.2-4.19,4.33-6.6.88-1.87,1.83-3.69,3.28-5.2,1.89-1.97,4.13-3.19,7.26-3.28Zm-1.21,24.27c.06-.85-.06-1.92-.16-2.99-.14-1.63-.37-3.25-.72-4.86-.2-.91-.85-1.14-1.63-.6-.34.24-.66.52-.98.8-2.73,2.38-5.23,4.96-7.06,8.12-.65,1.12-1.13,2.31-1.33,3.6-.27,1.76.76,2.76,2.5,2.47.56-.1,1.08-.3,1.57-.58.96-.54,1.52-.36,1.92.66.27.68.6,1.32,1.16,1.82.96.84,1.92.78,2.77-.16.43-.48.72-1.04.95-1.63.8-2.06,1.01-4.22,1-6.64Z"/>
        <path class="cls-6" d="m116.09,11.02c2.61-.04,5.44,2.98,5.01,5.39-.09.49-.26.97-.57,1.35-1.42,1.74-1.91,3.82-2.26,5.96-.08.51-.16,1.02-.39,1.49-.34.69-.89.89-1.56.52-.29-.15-.57-.34-.79-.57-2.58-2.67-5.81-3.17-9.31-2.86-.84.07-1.67.22-2.49.41-.78.18-1.3-.07-1.72-.76-1.31-2.09-.86-4.61,1.03-6.2.87-.73,1.81-1.27,2.91-1.62,2.54-.82,4.97-1.95,7.55-2.64.84-.22,1.68-.41,2.59-.47Z"/>
        <path class="cls-7" d="m160.28,27.83c-.01.24,0,.48-.03.71-.03.23-.16.3-.39.26-1.53-.29-3.19-2.38-3.12-3.97.04-.76.18-1.72.87-1.93.71-.22,1.22.63,1.63,1.21.77,1.11.96,2.41,1.04,3.72Z"/>
        <path class="cls-6" d="m147.18,57.18c-.01-.31.05-.61.2-.88.58-1.01,1.4-1.8,2.41-2.38.56-.32,1.03-.05.9.53-.27,1.18-.61,2.35-1.52,3.24-.24.23-.51.4-.85.45-.69.1-1.13-.28-1.14-.97Z"/>
        <path class="cls-6" d="m152.09,58.22c0-1.01.39-1.91.78-2.8.09-.21.26-.41.53-.4.27,0,.42.22.49.44.35,1.09.66,2.19.33,3.35-.22.79-.6,1.12-1.18,1.05-.54-.07-.91-.56-.95-1.28,0-.12,0-.23,0-.35Z"/>
      </g>
      <path class="cls-3" d="m58.5,56.64v24.04H11.62v-24.04c2.74-2.03,5.86-3.55,9.25-4.42v15.52h28.39v-15.51c3.38.86,6.52,2.39,9.24,4.41Z"/>
      <g>
        <path class="cls-4" d="m51.64,17.35v3.03c-2.14,2.16-8.74,3.74-16.56,3.74s-14.5-1.59-16.59-3.78v-2.96c.02-9.14,7.44-16.53,16.58-16.53,4.58,0,8.72,1.85,11.72,4.85,2.98,2.98,4.84,7.1,4.86,11.65Z"/>
        <path class="cls-4" d="m51.64,20.37c.22.03.44.06.66.1,8.62,1.27,14.32,3.47,14.32,5.97s-5.99,4.8-14.98,6.06c-4.81.68-10.5,1.06-16.57,1.06s-11.76-.39-16.58-1.06c-8.99-1.26-14.98-3.5-14.98-6.06s5.71-4.7,14.35-5.97c.2-.04.42-.07.63-.1"/>
      </g>
      <g>
        <path class="cls-1" d="m51.63,32.84v4.6c0,3.52-1.09,6.77-2.97,9.46-.88,1.27-1.94,2.42-3.15,3.4-.69.57-1.42,1.07-2.19,1.52-2.43,1.41-5.25,2.21-8.27,2.21s-5.83-.8-8.27-2.21c-.78-.44-1.52-.95-2.2-1.52-1.21-.98-2.27-2.12-3.15-3.4-1.87-2.68-2.97-5.94-2.97-9.46v-4.6"/>
        <path class="cls-2" d="m69.26,78.44v2.65H.85v-2.65c0-8.77,4.23-16.54,10.76-21.39,2.73-2.03,5.86-3.55,9.25-4.42,1.9-.48,3.89-.77,5.93-.81,2.43,1.41,5.25,2.21,8.27,2.21s5.83-.8,8.27-2.21c2.04.05,4.03.33,5.93.82,3.39.86,6.52,2.39,9.24,4.41,6.53,4.85,10.76,12.62,10.76,21.39Z"/>
        <g>
          <path class="cls-2" d="m51.63,17.35v3.03c-2.14,2.16-8.74,3.74-16.56,3.74s-14.5-1.59-16.59-3.78v-2.96c.02-9.14,7.44-16.53,16.58-16.53,4.58,0,8.72,1.85,11.72,4.85,2.98,2.98,4.84,7.1,4.86,11.65Z"/>
          <path class="cls-2" d="m51.63,20.37c.22.03.44.06.66.1,8.62,1.27,14.32,3.47,14.32,5.97s-5.99,4.8-14.98,6.06c-4.81.68-10.5,1.06-16.57,1.06s-11.76-.39-16.58-1.06c-8.99-1.26-14.98-3.5-14.98-6.06s5.71-4.7,14.35-5.97c.2-.04.42-.07.63-.1"/>
        </g>
        <path class="cls-2" d="m49.26,52.63v15.51h-28.39v-15.52c1.9-.48,3.89-.77,5.93-.81,2.43,1.41,5.25,2.21,8.27,2.21s5.83-.8,8.27-2.21c2.04.05,4.03.33,5.93.82Z"/>
        <path class="cls-2" d="m58.5,57.04v24.04H11.61v-24.04c2.73-2.03,5.86-3.55,9.25-4.42,1.9-.48,3.89-.77,5.93-.81,2.43,1.41,5.25,2.21,8.27,2.21s5.83-.8,8.27-2.21c2.04.05,4.03.33,5.93.82,3.39.86,6.52,2.39,9.24,4.41Z"/>
      </g>
      <g>
        <circle class="cls-8" cx="85.69" cy="55.01" r="9.7"/>
        <g>
          <line class="cls-5" x1="85.69" y1="48.8" x2="85.69" y2="61.23"/>
          <line class="cls-5" x1="91.91" y1="55.01" x2="79.47" y2="55.01"/>
        </g>
      </g>
    </g>
  </g>
</svg>